<?xml version="1.0" standalone="no"?>
<!DOCTYPE svg PUBLIC "-//W3C//DTD SVG 20010904//EN"
 "http://www.w3.org/TR/2001/REC-SVG-20010904/DTD/svg10.dtd">
<svg version="1.0" xmlns="http://www.w3.org/2000/svg"
 width="1080.000000pt" height="1080.000000pt" viewBox="0 0 1080.000000 1080.000000"
 preserveAspectRatio="xMidYMid meet">

<g transform="translate(0.000000,1080.000000) scale(0.100000,-0.100000)"
fill="#000000" stroke="none">
<path d="M4505 8234 c-147 -20 -197 -30 -310 -61 -71 -19 -134 -39 -140 -43
-5 -4 -28 -13 -50 -20 -110 -35 -318 -143 -489 -254 -245 -160 -531 -449 -713
-721 -267 -399 -419 -765 -518 -1240 -87 -425 -87 -926 1 -1280 32 -129 97
-326 115 -350 4 -6 16 -33 27 -61 56 -141 243 -405 381 -536 107 -103 242
-202 364 -270 154 -85 341 -148 512 -174 134 -20 405 -28 515 -15 234 26 440
79 639 163 170 73 353 178 485 280 28 22 76 58 106 81 132 99 540 544 540 587
-1 8 -13 59 -28 112 l-27 97 -97 -123 c-286 -361 -559 -582 -898 -729 -226
-98 -398 -136 -652 -145 l-177 -7 -76 -74 c-41 -41 -75 -71 -75 -67 0 4 35 40
77 81 89 84 94 75 -57 94 -193 25 -427 122 -590 245 -79 59 -231 209 -290 284
-45 57 -140 214 -135 222 3 5 1 10 -4 12 -14 5 -62 108 -56 118 4 6 1 10 -5
10 -6 0 -8 5 -5 10 3 6 1 10 -5 10 -7 0 -10 7 -6 15 3 8 1 15 -3 15 -13 0 -54
127 -46 140 3 5 1 10 -6 10 -6 0 -9 8 -6 20 3 12 1 18 -5 14 -7 -5 -9 2 -4 20
4 16 3 25 -2 22 -11 -6 -38 140 -52 279 -12 116 -6 407 10 545 73 608 353
1202 752 1600 176 174 334 287 553 395 312 154 623 212 919 171 409 -58 719
-278 911 -647 56 -108 135 -312 135 -349 0 -37 17 -20 45 43 16 34 48 104 72
156 l44 94 -37 111 c-150 451 -363 735 -699 928 -132 76 -301 138 -450 164
-77 14 -429 27 -490 18z m-595 -4879 c-13 -14 -26 -22 -29 -19 -3 3 5 14 18
25 33 27 39 24 11 -6z m-41 -38 c-2 -1 -13 -9 -24 -17 -19 -14 -19 -14 -6 3 7
9 18 17 24 17 6 0 8 -1 6 -3z m-65 -52 c-39 -31 -58 -36 -24 -7 19 16 37 28
39 26 3 -2 -4 -11 -15 -19z"/>
<path d="M6720 8145 c-18 -38 -46 -99 -62 -135 -16 -36 -53 -117 -82 -180
l-53 -115 489 -3 c268 -1 488 -4 488 -7 0 -8 -77 -178 -145 -320 -114 -238
-286 -607 -315 -675 -31 -75 -48 -111 -256 -548 -85 -178 -166 -351 -180 -385
-15 -34 -59 -127 -98 -207 l-73 -145 36 -114 36 -115 55 107 c30 58 56 105 58
103 1 -2 -22 -53 -52 -114 -31 -61 -56 -118 -56 -128 0 -23 152 -501 196 -616
96 -251 192 -359 359 -403 32 -8 60 -13 62 -11 2 2 -15 34 -37 72 -22 38 -40
72 -40 76 0 4 -11 31 -23 60 -34 76 -127 353 -207 618 -74 245 -104 340 -131
424 l-29 89 74 151 c90 183 196 407 196 411 0 2 32 70 71 152 103 216 177 373
244 518 20 44 49 107 65 140 26 56 56 120 133 285 16 36 42 92 57 125 26 54
50 107 127 275 50 108 148 317 208 445 40 85 105 231 105 236 0 2 -267 4 -594
4 l-594 0 -32 -70z"/>
<path d="M4184 6608 l-19 -23 23 19 c21 18 27 26 19 26 -2 0 -12 -10 -23 -22z"/>
<path d="M8131 4117 c-31 -38 -251 -150 -334 -171 -30 -7 -30 -5 -11 -72 3
-12 -1 -27 -10 -36 -8 -9 -13 -18 -10 -20 8 -9 -137 -138 -148 -132 -6 4 -8 3
-5 -3 9 -14 -129 -77 -238 -108 -133 -38 -270 -55 -440 -56 -200 0 -328 26
-460 94 -46 23 -68 38 -160 109 l-29 23 26 -47 c67 -121 214 -283 326 -360
153 -106 389 -168 635 -168 115 0 338 25 452 50 201 44 405 147 501 251 76 83
85 112 59 185 -8 23 -25 88 -39 145 -52 215 -82 323 -92 326 -6 2 -16 -3 -23
-10z"/>
</g>
</svg>
