<?xml version="1.0" standalone="no"?>
<svg xmlns:xlink="http://www.w3.org/1999/xlink" id="wave" style="transform:rotate(180deg); transition: 0.3s" viewBox="0 0 1440 490" version="1.1" xmlns="http://www.w3.org/2000/svg"><defs><linearGradient id="sw-gradient-0" x1="0" x2="0" y1="1" y2="0"><stop stop-color="rgba(27.179, 27.179, 27.179, 0.14)" offset="0%"/><stop stop-color="rgba(15.795, 15.474, 14.764, 0.1)" offset="100%"/></linearGradient></defs><path style="transform:translate(0, 0px); opacity:1" fill="url(#sw-gradient-0)" d="M0,441L80,367.5C160,294,320,147,480,130.7C640,114,800,229,960,245C1120,261,1280,180,1440,130.7C1600,82,1760,65,1920,73.5C2080,82,2240,114,2400,155.2C2560,196,2720,245,2880,269.5C3040,294,3200,294,3360,285.8C3520,278,3680,261,3840,212.3C4000,163,4160,82,4320,40.8C4480,0,4640,0,4800,0C4960,0,5120,0,5280,8.2C5440,16,5600,33,5760,98C5920,163,6080,278,6240,318.5C6400,359,6560,327,6720,277.7C6880,229,7040,163,7200,171.5C7360,180,7520,261,7680,294C7840,327,8000,310,8160,294C8320,278,8480,261,8640,277.7C8800,294,8960,343,9120,334.8C9280,327,9440,261,9600,212.3C9760,163,9920,131,10080,155.2C10240,180,10400,261,10560,253.2C10720,245,10880,147,11040,122.5C11200,98,11360,147,11440,171.5L11520,196L11520,490L11440,490C11360,490,11200,490,11040,490C10880,490,10720,490,10560,490C10400,490,10240,490,10080,490C9920,490,9760,490,9600,490C9440,490,9280,490,9120,490C8960,490,8800,490,8640,490C8480,490,8320,490,8160,490C8000,490,7840,490,7680,490C7520,490,7360,490,7200,490C7040,490,6880,490,6720,490C6560,490,6400,490,6240,490C6080,490,5920,490,5760,490C5600,490,5440,490,5280,490C5120,490,4960,490,4800,490C4640,490,4480,490,4320,490C4160,490,4000,490,3840,490C3680,490,3520,490,3360,490C3200,490,3040,490,2880,490C2720,490,2560,490,2400,490C2240,490,2080,490,1920,490C1760,490,1600,490,1440,490C1280,490,1120,490,960,490C800,490,640,490,480,490C320,490,160,490,80,490L0,490Z"/></svg>